<?xml version="1.0" encoding="UTF-8"?>
<svg id="Layer_2" data-name="Layer 2" xmlns="http://www.w3.org/2000/svg" viewBox="0 0 936 1260">
  <defs>
    <style>
      .cls-1 {
        fill: #fff;
      }

      .cls-2 {
        fill: #999;
      }

      .cls-3 {
        fill: #b3b3b3;
      }
    </style>
  </defs>
  <g id="Layer_1-2" data-name="Layer 1">
    <rect class="cls-2" x="18" y="9" width="135" height="1242"/>
    <rect class="cls-3" x="765" y="9" width="9" height="1242"/>
    <rect class="cls-1" x="774" y="9" width="9" height="1242"/>
    <rect class="cls-2" x="18" y="0" width="900" height="9"/>
    <rect class="cls-2" x="783" y="9" width="135" height="1242"/>
    <rect class="cls-2" x="630" y="9" width="135" height="1242"/>
    <rect class="cls-2" x="477" y="9" width="135" height="1242"/>
    <rect class="cls-2" x="324" y="9" width="135" height="1242"/>
    <rect class="cls-2" x="171" y="9" width="135" height="1242"/>
    <rect class="cls-3" x="612" y="9" width="9" height="1242"/>
    <rect class="cls-1" x="621" y="9" width="9" height="1242"/>
    <rect class="cls-3" x="459" y="9" width="9" height="1242"/>
    <rect class="cls-1" x="468" y="9" width="9" height="1242"/>
    <rect class="cls-3" x="306" y="9" width="9" height="1242"/>
    <rect class="cls-1" x="315" y="9" width="9" height="1242"/>
    <rect class="cls-3" x="153" y="9" width="9" height="1242"/>
    <rect class="cls-1" x="162" y="9" width="9" height="1242"/>
    <g>
      <rect x="0" y="18" width="9" height="1224"/>
      <rect x="9" y="9" width="9" height="1242"/>
    </g>
    <g>
      <rect x="927" y="18" width="9" height="1224"/>
      <rect x="918" y="9" width="9" height="1242"/>
    </g>
    <rect class="cls-2" x="18" y="1251" width="900" height="9"/>
  </g>
</svg>