<?xml version="1.0" encoding="UTF-8"?>
<svg id="Layer_2" data-name="Layer 2" xmlns="http://www.w3.org/2000/svg" viewBox="0 0 756 180">
  <g id="Layer_1-2" data-name="Layer 1">
    <rect x="288" y="0" width="27" height="180" transform="translate(603 180) rotate(180)"/>
    <rect x="328.5" y="-4.5" width="18" height="45" transform="translate(319.5 355.5) rotate(-90)"/>
    <rect x="328.5" y="139.5" width="27" height="54" transform="translate(175.5 508.5) rotate(-90)"/>
    <rect x="342" y="108" width="27" height="45"/>
    <rect x="328.5" y="67.5" width="27" height="54" transform="translate(436.5 -247.5) rotate(90)"/>
    <rect x="333.43" y="27" width="26.57" height="54" transform="translate(693.43 108) rotate(180)"/>
    <rect x="378" y="0" width="27" height="180" transform="translate(783 180) rotate(180)"/>
    <rect x="418.5" y="-4.5" width="18" height="45" transform="translate(409.5 445.5) rotate(-90)"/>
    <rect x="432" y="108" width="27" height="72"/>
    <rect x="418.5" y="67.5" width="27" height="54" transform="translate(526.5 -337.5) rotate(90)"/>
    <rect x="423.43" y="27" width="26.57" height="54" transform="translate(873.43 108) rotate(180)"/>
    <rect x="468" y="0" width="27" height="180"/>
    <rect x="504" y="0" width="27" height="180"/>
    <rect x="544.5" y="-4.5" width="18" height="45" transform="translate(535.5 571.5) rotate(-90)"/>
    <rect x="549" y="27" width="27" height="135"/>
    <rect x="544.5" y="148.5" width="18" height="45" transform="translate(382.5 724.5) rotate(-90)"/>
    <rect x="585" y="0" width="27" height="180"/>
    <rect x="639" y="81" width="27" height="72"/>
    <rect x="625.5" y="139.5" width="27" height="54" transform="translate(805.5 -472.5) rotate(90)"/>
    <rect x="625.5" y="-4.5" width="27" height="54" transform="translate(661.5 -616.5) rotate(90)"/>
    <rect x="643.5" y="31.5" width="18" height="27" transform="translate(697.5 -607.5) rotate(90)"/>
    <rect x="630" y="81" width="9" height="27" transform="translate(1269 189) rotate(180)"/>
    <rect x="675" y="0" width="27" height="180"/>
    <rect x="715.5" y="-4.5" width="27" height="54" transform="translate(751.5 -706.5) rotate(90)"/>
    <rect x="715.5" y="139.5" width="27" height="54" transform="translate(895.5 -562.5) rotate(90)"/>
    <rect x="706.5" y="58.5" width="27" height="36" transform="translate(796.5 -643.5) rotate(90)"/>
    <rect x="45" y="0" width="27" height="180" transform="translate(117 180) rotate(180)"/>
    <rect x="45" y="-36" width="27" height="117" transform="translate(36 81) rotate(-90)"/>
    <rect x="81" y="45" width="27" height="135" transform="translate(189 225) rotate(180)"/>
    <rect x="126" y="45" width="27" height="135" transform="translate(279 225) rotate(180)"/>
    <rect x="103.5" y="94.5" width="27" height="18" transform="translate(220.5 -13.5) rotate(90)"/>
    <rect x="162" width="27" height="180"/>
    <rect x="202.5" y="-4.5" width="27" height="54" transform="translate(238.5 -193.5) rotate(90)"/>
    <rect x="202.5" y="139.5" width="27" height="54" transform="translate(382.5 -49.5) rotate(90)"/>
    <rect x="193.5" y="58.5" width="27" height="36" transform="translate(283.5 -130.5) rotate(90)"/>
  </g>
</svg>