<?xml version="1.0" encoding="UTF-8"?>
<svg id="Layer_2" data-name="Layer 2" xmlns="http://www.w3.org/2000/svg" viewBox="0 0 882 603">
  <defs>
    <style>
      .cls-1 {
        fill: #999;
      }

      .cls-2 {
        fill: #b3b3b3;
      }

      .cls-3 {
        fill: #333;
      }

      .cls-4 {
        fill: gray;
      }
    </style>
  </defs>
  <g id="Layer_1-2" data-name="Layer 1">
    <g>
      <rect x="36" y="0" width="810" height="171" transform="translate(882 171) rotate(180)"/>
      <rect class="cls-4" x="810" y="135" width="36" height="36" transform="translate(1656 306) rotate(180)"/>
      <rect class="cls-4" x="796.5" y="49.5" width="135" height="36" transform="translate(796.5 931.5) rotate(-90)"/>
      <rect class="cls-4" x="738" y="171" width="72" height="36" transform="translate(1548 378) rotate(180)"/>
      <rect class="cls-4" x="144" y="207" width="594" height="36" transform="translate(882 450) rotate(180)"/>
      <rect class="cls-4" x="36" y="135" width="36" height="36"/>
      <rect class="cls-4" x="-49.5" y="49.5" width="135" height="36" transform="translate(-49.5 85.5) rotate(-90)"/>
      <rect class="cls-4" x="72" y="171" width="72" height="36"/>
      <rect x="144" y="171" width="594" height="36" transform="translate(882 378) rotate(180)"/>
      <rect class="cls-2" x="144" y="243" width="594" height="360" transform="translate(882 846) rotate(180)"/>
      <rect class="cls-2" x="756" y="207" width="54" height="396" transform="translate(1566 810) rotate(180)"/>
      <rect class="cls-1" x="126" y="207" width="18" height="396" transform="translate(270 810) rotate(180)"/>
      <rect class="cls-2" x="36" y="171" width="18" height="432" transform="translate(90 774) rotate(180)"/>
      <rect class="cls-2" x="828" y="171" width="18" height="432" transform="translate(1674 774) rotate(180)"/>
      <rect class="cls-2" x="864" y="135" width="18" height="468" transform="translate(1746 738) rotate(180)"/>
      <rect class="cls-2" x="0" y="135" width="18" height="468" transform="translate(18 738) rotate(180)"/>
      <rect class="cls-2" x="72" y="207" width="54" height="396" transform="translate(198 810) rotate(180)"/>
      <rect class="cls-1" x="54" y="171" width="18" height="432" transform="translate(126 774) rotate(180)"/>
      <rect class="cls-1" x="126" y="207" width="18" height="396" transform="translate(270 810) rotate(180)"/>
      <rect class="cls-1" x="18" y="135" width="18" height="468" transform="translate(54 738) rotate(180)"/>
      <rect class="cls-1" x="846" y="135" width="18" height="468" transform="translate(1710 738) rotate(180)"/>
      <rect class="cls-1" x="810" y="171" width="18" height="432" transform="translate(1638 774) rotate(180)"/>
      <rect class="cls-1" x="738" y="207" width="18" height="396" transform="translate(1494 810) rotate(180)"/>
      <rect class="cls-3" x="760.5" y="49.5" width="135" height="36" transform="translate(760.5 895.5) rotate(-90)"/>
      <rect class="cls-3" x="756" y="117" width="36" height="72" transform="translate(621 927) rotate(-90)"/>
      <rect class="cls-3" x="423" y="-108" width="36" height="594" transform="translate(252 630) rotate(-90)"/>
      <rect class="cls-3" x="90" y="117" width="36" height="72" transform="translate(-45 261) rotate(-90)"/>
      <rect class="cls-3" x="-13.5" y="49.5" width="135" height="36" transform="translate(-13.5 121.5) rotate(-90)"/>
    </g>
  </g>
</svg>