<?xml version="1.0" encoding="UTF-8"?>
<svg id="Layer_2" data-name="Layer 2" xmlns="http://www.w3.org/2000/svg" viewBox="0 0 882 603">
  <defs>
    <style>
      .cls-1 {
        fill: #999;
      }

      .cls-2 {
        fill: #b3b3b3;
      }

      .cls-3 {
        fill: #333;
      }

      .cls-4 {
        fill: gray;
      }
    </style>
  </defs>
  <g id="Layer_1-2" data-name="Layer 1">
    <g>
      <rect x="36" y="432" width="810" height="171"/>
      <rect class="cls-4" x="36" y="432" width="36" height="36"/>
      <rect class="cls-4" x="-49.5" y="517.5" width="135" height="36" transform="translate(553.5 517.5) rotate(90)"/>
      <rect class="cls-4" x="72" y="396" width="72" height="36"/>
      <rect class="cls-4" x="144" y="360" width="594" height="36"/>
      <rect class="cls-4" x="810" y="432" width="36" height="36" transform="translate(1656 900) rotate(-180)"/>
      <rect class="cls-4" x="796.5" y="517.5" width="135" height="36" transform="translate(1399.5 -328.5) rotate(90)"/>
      <rect class="cls-4" x="738" y="396" width="72" height="36" transform="translate(1548 828) rotate(-180)"/>
      <rect x="144" y="396" width="594" height="36"/>
      <rect class="cls-2" x="144" y="0" width="594" height="360"/>
      <rect class="cls-2" x="72" y="0" width="54" height="396"/>
      <rect class="cls-1" x="738" y="0" width="18" height="396"/>
      <rect class="cls-2" x="828" width="18" height="432"/>
      <rect class="cls-2" x="36" y="0" width="18" height="432"/>
      <rect class="cls-2" y="0" width="18" height="468"/>
      <rect class="cls-2" x="864" width="18" height="468"/>
      <rect class="cls-2" x="756" y="0" width="54" height="396"/>
      <rect class="cls-1" x="810" y="0" width="18" height="432"/>
      <rect class="cls-1" x="738" y="0" width="18" height="396"/>
      <rect class="cls-1" x="846" y="0" width="18" height="468"/>
      <rect class="cls-1" x="18" y="0" width="18" height="468"/>
      <rect class="cls-1" x="54" y="0" width="18" height="432"/>
      <rect class="cls-1" x="126" y="0" width="18" height="396"/>
      <rect class="cls-3" x="-13.5" y="517.5" width="135" height="36" transform="translate(589.5 481.5) rotate(90)"/>
      <rect class="cls-3" x="90" y="414" width="36" height="72" transform="translate(558 342) rotate(90)"/>
      <rect class="cls-3" x="423" y="117" width="36" height="594" transform="translate(855 -27) rotate(90)"/>
      <rect class="cls-3" x="756" y="414" width="36" height="72" transform="translate(1224 -324) rotate(90)"/>
      <rect class="cls-3" x="760.5" y="517.5" width="135" height="36" transform="translate(1363.5 -292.5) rotate(90)"/>
    </g>
  </g>
</svg>